<svg width="32" height="32" viewBox="0 0 32 32" fill="none" xmlns="http://www.w3.org/2000/svg">
<path d="M15.4731 27.4633C15.4691 27.4593 15.3793 27.4492 15.2754 27.4412C14.6705 27.4012 13.9537 27.279 13.2989 27.1088C12.9834 27.0267 12.2407 26.7864 12.0411 26.7022C11.9812 26.6762 11.8594 26.6261 11.7716 26.5901C11.5 26.4779 10.8292 26.1415 10.4958 25.9492C8.5891 24.8518 7.00585 23.1775 6.01159 21.2129C5.75603 20.7062 5.66419 20.4939 5.46254 19.9512C5.13911 19.072 4.89952 18.0246 4.82366 17.1475C4.81567 17.0714 4.80768 16.9812 4.80369 16.9472C4.77175 16.6608 4.76176 15.7676 4.78372 15.3711C4.85161 14.1895 5.09518 13.0039 5.47452 12.0106C5.50647 11.9285 5.53242 11.8504 5.53242 11.8364C5.53242 11.8163 5.47851 11.8103 5.32079 11.8103C5.06324 11.8103 4.97739 11.7863 4.86159 11.6842C4.628 11.4779 4.61402 11.1474 4.83164 10.9291C5.00734 10.7529 4.92747 10.7609 6.65047 10.7489C8.30759 10.7369 8.20776 10.7449 8.33154 10.6147C8.51323 10.4225 8.50923 10.108 8.32156 9.91178C8.19179 9.7736 8.23172 9.7796 7.2095 9.76358C6.69839 9.75758 5.85386 9.74956 5.32878 9.74956C4.28459 9.74956 4.31055 9.75157 4.1648 9.6254C3.94119 9.42713 3.9392 9.04662 4.16281 8.85036C4.31255 8.71819 4.23668 8.72419 5.81193 8.7262C6.59856 8.7262 7.26939 8.72019 7.30533 8.71418C7.35524 8.70417 7.41913 8.64409 7.60681 8.4278C8.39543 7.52058 9.39769 6.69348 10.4538 6.07265C11.9492 5.19547 13.5465 4.70081 15.3952 4.5426C15.6149 4.52458 16.9565 4.52858 17.1622 4.55061C18.7694 4.71083 20.0531 5.07732 21.3948 5.76223C23.3254 6.74555 24.9446 8.26158 26.0427 10.1121C26.1844 10.3504 26.4959 10.9191 26.4959 10.9372C26.4959 10.9432 26.5498 11.0593 26.6157 11.1995C26.6816 11.3397 26.7355 11.4578 26.7355 11.4619C26.7355 11.4679 26.7535 11.5119 26.7754 11.562C26.8573 11.7402 26.9371 11.9565 27.0849 12.4011C27.3065 13.07 27.4702 13.783 27.5541 14.4438C27.566 14.544 27.58 14.6521 27.584 14.6842C27.588 14.7182 27.598 14.8083 27.604 14.8844C27.612 14.9625 27.6199 15.0567 27.6239 15.0947C27.6719 15.5433 27.6659 16.5767 27.614 17.0433C27.562 17.5119 27.5481 17.6101 27.5021 17.8985C27.3784 18.6715 27.1428 19.5166 26.8493 20.2516C26.7994 20.3738 26.7634 20.4759 26.7654 20.4779C26.7694 20.4819 26.8373 20.4899 26.9152 20.4939C27.1987 20.51 27.3963 20.6842 27.4263 20.9485C27.4562 21.1989 27.3065 21.4332 27.0709 21.5053C27.029 21.5193 26.3861 21.5293 25.318 21.5353C23.8884 21.5433 23.6189 21.5493 23.547 21.5754C23.4432 21.6134 23.2915 21.7716 23.2635 21.8758C23.1976 22.1161 23.2895 22.3564 23.4971 22.4786L23.591 22.5347L25.3579 22.5387C27.568 22.5447 27.6 22.5447 27.7038 22.5987C27.8036 22.6528 27.8595 22.7049 27.9294 22.811C27.9753 22.8851 27.9833 22.9152 27.9833 23.0554C27.9833 23.2416 27.9474 23.3317 27.8316 23.4459C27.6838 23.5901 27.7258 23.5861 26.1944 23.5861H24.8248L24.3277 24.0827C23.8226 24.5874 23.5231 24.8518 23.0519 25.2062C21.4167 26.4379 19.4582 27.2049 17.3918 27.4212C17.3319 27.4272 17.242 27.4372 17.1921 27.4432C17.0823 27.4572 15.4851 27.4753 15.4731 27.4633ZM19.9194 21.0847C21.0534 20.8384 21.6404 19.8851 21.5984 18.3591C21.5924 18.1448 21.5825 17.9365 21.5745 17.8985C21.5685 17.8604 21.5485 17.7483 21.5325 17.6501C21.4727 17.2937 21.3189 16.9071 21.1352 16.6448C21.0174 16.4806 20.7419 16.2242 20.5742 16.1241C20.2069 15.9078 19.7976 15.8117 19.2885 15.8217C18.8672 15.8317 18.5897 15.8938 18.2802 16.05C17.6653 16.3584 17.3159 16.8891 17.1602 17.7483C17.1142 18.0026 17.1083 18.8758 17.1482 19.1401C17.2001 19.4706 17.3299 19.8871 17.4477 20.1014C17.7252 20.6081 18.2243 20.9666 18.8093 21.0807C19.1627 21.1508 19.6099 21.1528 19.9194 21.0847ZM14.5347 21.0727C14.5567 21.0507 15.1157 19.9512 15.7746 18.6294C16.4354 17.3077 17.5495 15.0767 18.2523 13.6708C19.0728 12.0286 19.528 11.0954 19.528 11.0573C19.528 10.9832 19.4861 10.9211 19.4122 10.8911C19.3723 10.8751 19.1607 10.8691 18.6635 10.8731C18.0027 10.8791 17.9708 10.8811 17.9328 10.9191C17.9109 10.9412 17.7392 11.2656 17.5515 11.6401C17.3618 12.0146 17.0164 12.6995 16.7828 13.1621C16.5492 13.6247 16.0381 14.6441 15.6448 15.4252C15.2515 16.2082 14.8202 17.0633 14.6865 17.3277C13.9278 18.8157 12.8996 20.8885 12.8996 20.9285C12.8996 20.9946 12.9435 21.0687 12.9994 21.0967C13.0373 21.1168 13.217 21.1208 13.7721 21.1188C14.4649 21.1128 14.4968 21.1108 14.5347 21.0727ZM13.5285 16.1541C13.8479 16.1021 14.1893 15.9579 14.4369 15.7756C14.8761 15.4492 15.1457 14.9505 15.2675 14.2436C15.3034 14.0313 15.3214 13.2883 15.2934 13.032C15.2435 12.5373 15.1077 12.1087 14.9001 11.7803C14.5407 11.2135 13.9198 10.8991 13.1232 10.8771C12.4324 10.859 11.8893 11.0593 11.4781 11.4859C11.1287 11.8444 10.941 12.287 10.8532 12.9518C10.8232 13.1822 10.8232 13.9532 10.8532 14.1434C10.961 14.8203 11.1367 15.2249 11.4701 15.5734C11.7915 15.9078 12.2527 16.1201 12.7638 16.1722C12.9655 16.1922 13.3588 16.1842 13.5285 16.1541Z" fill="#BC83D8"/>
<path d="M19.263 19.7229C19.1851 19.7049 19.0753 19.6108 19.0314 19.5226C18.9875 19.4365 18.9395 19.2563 18.9196 19.1101C18.9136 19.056 18.9036 18.9779 18.8996 18.9399C18.8876 18.8517 18.8876 18.0927 18.8996 17.9986C18.9036 17.9605 18.9136 17.8844 18.9216 17.8284C18.9795 17.3738 19.1152 17.1875 19.3748 17.2075C19.6783 17.2316 19.7881 17.562 19.7901 18.4492C19.7921 19.3324 19.6822 19.6849 19.3888 19.7269C19.3508 19.7309 19.2949 19.7309 19.263 19.7229Z" fill="#BC83D8"/>
<path d="M12.97 14.7703C12.7105 14.7142 12.5987 14.3397 12.5967 13.5106C12.5967 12.6955 12.7205 12.301 12.99 12.2589C13.3574 12.2048 13.5091 12.5693 13.5091 13.5126C13.5091 14.2195 13.4272 14.6061 13.2515 14.7202C13.1797 14.7683 13.0599 14.7883 12.97 14.7703Z" fill="#BC83D8"/>
<path d="M28.8022 23.538C28.6924 23.4879 28.5826 23.3758 28.5406 23.2737C28.5247 23.2356 28.5127 23.1435 28.5127 23.0654C28.5127 22.763 28.7143 22.5567 29.0118 22.5567C29.2175 22.5567 29.3852 22.6608 29.485 22.8531C29.5349 22.9472 29.5309 23.1916 29.475 23.2977C29.3492 23.544 29.0458 23.6522 28.8022 23.538Z" fill="#BC83D8"/>
<path d="M2.76762 9.7095C2.66779 9.66344 2.56996 9.56731 2.51406 9.45917C2.45017 9.335 2.45416 9.13073 2.52404 8.99254C2.70772 8.63006 3.22881 8.62605 3.42447 8.98654C3.50034 9.12672 3.50633 9.31297 3.43845 9.45316C3.38255 9.56731 3.24678 9.69148 3.14097 9.72352C3.02716 9.75757 2.85946 9.75156 2.76762 9.7095Z" fill="#BC83D8"/>
</svg>
