<svg width="1734" height="512" viewBox="0 0 1734 512" fill="none" xmlns="http://www.w3.org/2000/svg">
<path d="M247.576 439.412C247.512 439.348 246.074 439.188 244.413 439.06C234.734 438.419 223.266 436.464 212.788 433.741C207.741 432.427 195.858 428.582 192.663 427.236C191.705 426.819 189.756 426.018 188.351 425.441C184.006 423.647 173.273 418.264 167.938 415.188C137.431 397.628 112.1 370.84 96.1912 339.406C92.1024 331.3 90.6329 327.903 87.4065 319.219C82.2316 305.153 78.3982 288.394 77.1843 274.359C77.0566 273.142 76.9288 271.7 76.8649 271.155C76.3538 266.573 76.1941 252.282 76.5455 245.937C77.6316 227.032 81.5288 208.063 87.5982 192.169C88.1093 190.856 88.5246 189.606 88.5246 189.382C88.5246 189.061 87.6621 188.965 85.1385 188.965C81.0177 188.965 79.6441 188.581 77.7913 186.946C74.0538 183.646 73.8302 178.359 77.3121 174.866C80.1232 172.047 78.8455 172.175 106.413 171.982C132.927 171.79 131.33 171.918 133.311 169.836C136.218 166.759 136.154 161.729 133.151 158.589C131.074 156.378 131.713 156.474 115.358 156.217C107.18 156.121 93.6676 155.993 85.2663 155.993C68.5594 155.993 68.9746 156.025 66.6427 154.006C63.0649 150.834 63.033 144.746 66.6108 141.606C69.0066 139.491 67.7927 139.587 92.9968 139.619C105.583 139.619 116.316 139.523 116.891 139.427C117.69 139.267 118.712 138.305 121.715 134.845C134.333 120.329 150.369 107.096 167.267 97.1624C191.194 83.1276 216.749 75.213 246.33 72.6816C249.844 72.3932 271.31 72.4573 274.6 72.8098C300.316 75.3732 320.856 81.2371 342.322 92.1957C373.213 107.929 399.12 132.185 416.689 161.793C418.957 165.606 423.94 174.706 423.94 174.994C423.94 175.091 424.803 176.949 425.857 179.192C426.911 181.435 427.774 183.326 427.774 183.39C427.774 183.486 428.061 184.191 428.412 184.992C429.722 187.844 431 191.304 433.364 198.418C436.91 209.12 439.529 220.527 440.871 231.101C441.062 232.704 441.286 234.434 441.35 234.947C441.414 235.491 441.574 236.933 441.669 238.151C441.797 239.401 441.925 240.907 441.989 241.515C442.755 248.693 442.66 265.227 441.829 272.693C440.999 280.191 440.775 281.761 440.04 286.375C438.06 298.744 434.29 312.266 429.594 324.026C428.796 325.98 428.221 327.615 428.253 327.647C428.317 327.711 429.403 327.839 430.649 327.903C435.185 328.159 438.347 330.947 438.826 335.177C439.305 339.182 436.91 342.931 433.14 344.085C432.469 344.309 422.183 344.469 405.093 344.565C382.221 344.693 377.908 344.79 376.758 345.206C375.097 345.815 372.67 348.346 372.222 350.013C371.168 353.858 372.638 357.703 375.96 359.657L377.461 360.555L405.732 360.619C441.094 360.715 441.605 360.715 443.267 361.58C444.864 362.445 445.758 363.278 446.876 364.977C447.611 366.162 447.739 366.643 447.739 368.886C447.739 371.866 447.164 373.308 445.311 375.134C442.947 377.441 443.618 377.377 419.117 377.377H397.203L389.249 385.324C381.167 393.399 376.375 397.628 368.836 403.3C342.674 423.006 311.336 435.279 278.274 438.739C277.316 438.835 275.878 438.996 275.08 439.092C273.323 439.316 247.767 439.604 247.576 439.412ZM318.716 337.356C336.86 333.414 346.252 318.162 345.581 293.745C345.485 290.317 345.325 286.984 345.197 286.375C345.102 285.767 344.782 283.972 344.527 282.402C343.568 276.698 341.109 270.514 338.17 266.317C336.285 263.689 331.877 259.588 329.193 257.985C323.316 254.525 316.767 252.987 308.621 253.147C301.881 253.307 297.441 254.301 292.489 256.8C282.65 261.734 277.06 270.226 274.568 283.972C273.834 288.042 273.738 302.012 274.377 306.242C275.207 311.529 277.284 318.194 279.168 321.623C283.609 329.729 291.595 335.465 300.955 337.292C306.609 338.413 313.764 338.445 318.716 337.356ZM232.562 337.163C232.913 336.811 241.857 319.219 252.399 298.071C262.973 276.923 280.798 241.227 292.042 218.733C305.171 192.458 312.454 177.526 312.454 176.917C312.454 175.731 311.784 174.738 310.602 174.257C309.963 174.001 306.577 173.905 298.623 173.969C288.049 174.065 287.538 174.097 286.931 174.706C286.58 175.059 283.832 180.249 280.83 186.241C277.795 192.234 272.268 203.192 268.531 210.594C264.794 217.996 256.616 234.306 250.323 246.802C244.03 259.331 237.13 273.014 234.989 277.243C222.851 301.051 206.399 334.215 206.399 334.856C206.399 335.914 207.102 337.099 207.996 337.548C208.603 337.868 211.478 337.932 220.359 337.9C231.444 337.804 231.955 337.772 232.562 337.163ZM216.462 258.466C221.573 257.633 227.035 255.326 230.996 252.41C238.024 247.187 242.337 239.208 244.285 227.897C244.86 224.501 245.148 212.613 244.701 208.511C243.902 200.597 241.73 193.74 238.407 188.484C232.658 179.416 222.723 174.386 209.977 174.033C198.924 173.745 190.235 176.949 183.655 183.774C178.065 189.51 175.062 196.591 173.656 207.23C173.177 210.914 173.177 223.251 173.656 226.295C175.381 237.126 178.192 243.598 183.527 249.174C188.67 254.525 196.049 257.921 204.227 258.754C207.453 259.075 213.746 258.947 216.462 258.466Z" fill="#BC83D8"/>
<path d="M308.206 315.566C306.96 315.278 305.203 313.772 304.501 312.362C303.798 310.984 303.031 308.1 302.712 305.761C302.616 304.896 302.456 303.646 302.392 303.038C302.201 301.628 302.201 289.484 302.392 287.978C302.456 287.369 302.616 286.151 302.744 285.254C303.67 277.98 305.842 275 309.995 275.321C314.851 275.705 316.608 280.992 316.639 295.187C316.671 309.318 314.914 314.958 310.219 315.631C309.612 315.695 308.717 315.695 308.206 315.566Z" fill="#BC83D8"/>
<path d="M207.518 236.324C203.365 235.427 201.576 229.435 201.544 216.17C201.544 203.128 203.524 196.816 207.837 196.143C213.715 195.278 216.143 201.109 216.143 216.202C216.143 227.513 214.833 233.697 212.022 235.523C210.872 236.292 208.955 236.613 207.518 236.324Z" fill="#BC83D8"/>
<path d="M460.836 376.608C459.079 375.807 457.322 374.013 456.652 372.379C456.396 371.77 456.204 370.296 456.204 369.046C456.204 364.208 459.431 360.907 464.19 360.907C467.481 360.907 470.164 362.573 471.761 365.65C472.56 367.156 472.496 371.065 471.602 372.763C469.589 376.704 464.733 378.435 460.836 376.608Z" fill="#BC83D8"/>
<path d="M44.2819 155.352C42.6846 154.615 41.1194 153.077 40.2249 151.347C39.2027 149.36 39.2666 146.092 40.3847 143.881C43.3235 138.081 51.661 138.017 54.7916 143.785C56.0054 146.028 56.1013 149.008 55.0152 151.251C54.1207 153.077 51.9485 155.064 50.2555 155.576C48.4346 156.121 45.7513 156.025 44.2819 155.352Z" fill="#BC83D8"/>
<path d="M656.531 219.855V369H606.295V180.918H653.402L656.531 219.855ZM649.578 268.354H635.672C635.672 255.258 637.236 243.206 640.365 232.197C643.61 221.072 648.303 211.454 654.445 203.342C660.703 195.114 668.41 188.74 677.564 184.221C686.719 179.701 697.323 177.441 709.375 177.441C717.719 177.441 725.367 178.716 732.32 181.266C739.273 183.699 745.242 187.581 750.225 192.912C755.324 198.127 759.264 204.964 762.045 213.424C764.826 221.768 766.217 231.792 766.217 243.496V369H716.154V249.059C716.154 240.483 714.995 233.878 712.678 229.242C710.36 224.607 707.057 221.362 702.77 219.508C698.598 217.654 693.557 216.727 687.646 216.727C681.157 216.727 675.479 218.059 670.611 220.725C665.86 223.39 661.92 227.098 658.791 231.85C655.662 236.485 653.344 241.932 651.838 248.189C650.331 254.447 649.578 261.169 649.578 268.354ZM761.523 262.617L743.619 264.877C743.619 252.593 745.126 241.178 748.139 230.633C751.268 220.087 755.845 210.816 761.871 202.82C768.013 194.824 775.604 188.624 784.643 184.221C793.682 179.701 804.111 177.441 815.932 177.441C824.971 177.441 833.199 178.774 840.615 181.439C848.032 183.989 854.348 188.103 859.562 193.781C864.893 199.344 868.949 206.645 871.73 215.684C874.628 224.723 876.076 235.79 876.076 248.885V369H825.84V248.885C825.84 240.193 824.681 233.588 822.363 229.068C820.161 224.433 816.917 221.246 812.629 219.508C808.457 217.654 803.474 216.727 797.68 216.727C791.654 216.727 786.381 217.943 781.861 220.377C777.342 222.695 773.576 225.939 770.562 230.111C767.549 234.283 765.29 239.15 763.783 244.713C762.277 250.16 761.523 256.128 761.523 262.617ZM1016.36 326.586V242.801C1016.36 236.775 1015.37 231.618 1013.4 227.33C1011.43 222.926 1008.36 219.508 1004.19 217.074C1000.13 214.641 994.859 213.424 988.369 213.424C982.807 213.424 977.997 214.409 973.941 216.379C969.885 218.233 966.757 220.956 964.555 224.549C962.353 228.025 961.252 232.139 961.252 236.891H911.189C911.189 228.895 913.044 221.304 916.752 214.119C920.46 206.934 925.849 200.618 932.918 195.172C939.987 189.609 948.389 185.264 958.123 182.135C967.973 179.006 978.982 177.441 991.15 177.441C1005.75 177.441 1018.73 179.875 1030.09 184.742C1041.44 189.609 1050.37 196.91 1056.86 206.645C1063.46 216.379 1066.77 228.547 1066.77 243.148V323.631C1066.77 333.945 1067.4 342.404 1068.68 349.01C1069.95 355.499 1071.81 361.178 1074.24 366.045V369H1023.66C1021.22 363.901 1019.37 357.527 1018.09 349.879C1016.93 342.115 1016.36 334.35 1016.36 326.586ZM1022.96 254.447L1023.31 282.781H995.322C988.717 282.781 982.98 283.535 978.113 285.041C973.246 286.548 969.248 288.691 966.119 291.473C962.99 294.138 960.673 297.267 959.166 300.859C957.775 304.452 957.08 308.392 957.08 312.68C957.08 316.967 958.065 320.85 960.035 324.326C962.005 327.687 964.844 330.352 968.553 332.322C972.261 334.176 976.607 335.104 981.59 335.104C989.122 335.104 995.67 333.597 1001.23 330.584C1006.79 327.571 1011.08 323.863 1014.1 319.459C1017.22 315.055 1018.85 310.883 1018.96 306.943L1032.17 328.15C1030.32 332.902 1027.77 337.827 1024.53 342.926C1021.4 348.025 1017.4 352.834 1012.53 357.354C1007.66 361.757 1001.81 365.408 994.975 368.305C988.137 371.086 980.025 372.477 970.639 372.477C958.702 372.477 947.867 370.101 938.133 365.35C928.514 360.482 920.866 353.819 915.188 345.359C909.625 336.784 906.844 327.049 906.844 316.156C906.844 306.306 908.698 297.557 912.406 289.908C916.115 282.26 921.561 275.828 928.746 270.613C936.047 265.283 945.144 261.285 956.037 258.619C966.93 255.838 979.562 254.447 993.932 254.447H1022.96ZM1197.48 180.918V216.379H1087.97V180.918H1197.48ZM1115.09 134.506H1165.15V312.332C1165.15 317.779 1165.85 321.951 1167.24 324.848C1168.74 327.745 1170.95 329.773 1173.84 330.932C1176.74 331.975 1180.39 332.496 1184.79 332.496C1187.92 332.496 1190.71 332.38 1193.14 332.148C1195.69 331.801 1197.83 331.453 1199.57 331.105L1199.74 367.957C1195.46 369.348 1190.82 370.449 1185.84 371.26C1180.85 372.071 1175.35 372.477 1169.32 372.477C1158.32 372.477 1148.7 370.68 1140.47 367.088C1132.36 363.38 1126.1 357.469 1121.7 349.357C1117.29 341.245 1115.09 330.584 1115.09 317.373V134.506ZM1278.84 102V369H1228.6V102H1278.84ZM1421.72 326.586V242.801C1421.72 236.775 1420.74 231.618 1418.77 227.33C1416.8 222.926 1413.73 219.508 1409.55 217.074C1405.5 214.641 1400.23 213.424 1393.74 213.424C1388.17 213.424 1383.36 214.409 1379.31 216.379C1375.25 218.233 1372.12 220.956 1369.92 224.549C1367.72 228.025 1366.62 232.139 1366.62 236.891H1316.56C1316.56 228.895 1318.41 221.304 1322.12 214.119C1325.83 206.934 1331.22 200.618 1338.29 195.172C1345.35 189.609 1353.76 185.264 1363.49 182.135C1373.34 179.006 1384.35 177.441 1396.52 177.441C1411.12 177.441 1424.1 179.875 1435.46 184.742C1446.81 189.609 1455.74 196.91 1462.22 206.645C1468.83 216.379 1472.13 228.547 1472.13 243.148V323.631C1472.13 333.945 1472.77 342.404 1474.04 349.01C1475.32 355.499 1477.17 361.178 1479.61 366.045V369H1429.02C1426.59 363.901 1424.74 357.527 1423.46 349.879C1422.3 342.115 1421.72 334.35 1421.72 326.586ZM1428.33 254.447L1428.68 282.781H1400.69C1394.08 282.781 1388.35 283.535 1383.48 285.041C1378.61 286.548 1374.62 288.691 1371.49 291.473C1368.36 294.138 1366.04 297.267 1364.53 300.859C1363.14 304.452 1362.45 308.392 1362.45 312.68C1362.45 316.967 1363.43 320.85 1365.4 324.326C1367.37 327.687 1370.21 330.352 1373.92 332.322C1377.63 334.176 1381.97 335.104 1386.96 335.104C1394.49 335.104 1401.04 333.597 1406.6 330.584C1412.16 327.571 1416.45 323.863 1419.46 319.459C1422.59 315.055 1424.21 310.883 1424.33 306.943L1437.54 328.15C1435.69 332.902 1433.14 337.827 1429.89 342.926C1426.76 348.025 1422.77 352.834 1417.9 357.354C1413.03 361.757 1407.18 365.408 1400.34 368.305C1393.5 371.086 1385.39 372.477 1376.01 372.477C1364.07 372.477 1353.23 370.101 1343.5 365.35C1333.88 360.482 1326.23 353.819 1320.55 345.359C1314.99 336.784 1312.21 327.049 1312.21 316.156C1312.21 306.306 1314.07 297.557 1317.77 289.908C1321.48 282.26 1326.93 275.828 1334.11 270.613C1341.41 265.283 1350.51 261.285 1361.4 258.619C1372.3 255.838 1384.93 254.447 1399.3 254.447H1428.33ZM1602.85 180.918V216.379H1493.34V180.918H1602.85ZM1520.46 134.506H1570.52V312.332C1570.52 317.779 1571.21 321.951 1572.61 324.848C1574.11 327.745 1576.31 329.773 1579.21 330.932C1582.11 331.975 1585.76 332.496 1590.16 332.496C1593.29 332.496 1596.07 332.38 1598.51 332.148C1601.06 331.801 1603.2 331.453 1604.94 331.105L1605.11 367.957C1600.82 369.348 1596.19 370.449 1591.21 371.26C1586.22 372.071 1580.72 372.477 1574.69 372.477C1563.68 372.477 1554.06 370.68 1545.84 367.088C1537.72 363.38 1531.47 357.469 1527.06 349.357C1522.66 341.245 1520.46 330.584 1520.46 317.373V134.506Z" fill="#292D32"/>
</svg>
